<svg width="79" height="26" viewBox="0 0 79 26" fill="none" xmlns="http://www.w3.org/2000/svg">
<rect width="17.4162" height="17.4162" transform="matrix(0.769236 -0.638964 0.769236 0.638964 0 14.5531)" fill="#89B7FC"/>
<rect width="17.4162" height="17.4162" transform="matrix(0.769236 -0.638964 0.769236 0.638964 0.205566 11.1283)" fill="#2D81FF"/>
<path d="M45.08 20.84H41.84V9.8H45.08V20.84ZM41.72 6.8C41.72 6.32 41.896 5.904 42.248 5.552C42.616 5.184 43.04 5 43.52 5C44 5 44.416 5.184 44.768 5.552C45.136 5.904 45.32 6.32 45.32 6.8C45.32 7.28 45.136 7.704 44.768 8.072C44.416 8.424 44 8.6 43.52 8.6C43.04 8.6 42.616 8.424 42.248 8.072C41.896 7.704 41.72 7.28 41.72 6.8Z" fill="#0A1B35"/>
<path d="M52.64 9.68C53.296 9.68 53.896 9.792 54.44 10.016C54.984 10.224 55.448 10.536 55.832 10.952C56.232 11.352 56.536 11.84 56.744 12.416C56.968 12.992 57.08 13.64 57.08 14.36V20.84H53.84V14.96C53.84 14.24 53.648 13.68 53.264 13.28C52.896 12.88 52.408 12.68 51.8 12.68C51.192 12.68 50.696 12.88 50.312 13.28C49.944 13.68 49.76 14.24 49.76 14.96V20.84H46.52V9.8H48.92L49.4 10.88C49.656 10.656 49.952 10.456 50.288 10.28C50.576 10.136 50.92 10 51.32 9.872C51.72 9.744 52.16 9.68 52.64 9.68Z" fill="#0A1B35"/>
<path d="M62.8438 20.96C62.1558 20.96 61.4997 20.824 60.8757 20.552C60.2517 20.264 59.6998 19.872 59.2198 19.376C58.7558 18.864 58.3798 18.264 58.0918 17.576C57.8198 16.888 57.6838 16.136 57.6838 15.32C57.6838 14.504 57.8198 13.752 58.0918 13.064C58.3798 12.376 58.7558 11.784 59.2198 11.288C59.6998 10.776 60.2517 10.384 60.8757 10.112C61.4997 9.824 62.1558 9.68 62.8438 9.68C63.2598 9.68 63.6358 9.728 63.9718 9.824C64.3238 9.92 64.6198 10.032 64.8598 10.16C65.1478 10.304 65.3958 10.464 65.6038 10.64V5.72H68.8438V20.84H66.4438L65.9638 19.76C65.7078 19.984 65.4278 20.184 65.1238 20.36C64.8518 20.52 64.5238 20.664 64.1398 20.792C63.7558 20.904 63.3238 20.96 62.8438 20.96ZM60.9237 15.32C60.9237 16.104 61.1558 16.744 61.6198 17.24C62.0838 17.72 62.6518 17.96 63.3238 17.96C63.9958 17.96 64.5637 17.72 65.0278 17.24C65.4917 16.744 65.7238 16.104 65.7238 15.32C65.7238 14.536 65.4917 13.904 65.0278 13.424C64.5637 12.928 63.9958 12.68 63.3238 12.68C62.6518 12.68 62.0838 12.928 61.6198 13.424C61.1558 13.904 60.9237 14.536 60.9237 15.32Z" fill="#0A1B35"/>
<path d="M75.5619 9.68C75.7059 9.68 75.8339 9.688 75.9459 9.704C76.0739 9.72 76.1779 9.736 76.2579 9.752C76.3539 9.768 76.4419 9.784 76.5219 9.8V13.16C76.4259 13.128 76.3139 13.088 76.1859 13.04C76.0739 13.008 75.9459 12.984 75.8019 12.968C75.6579 12.936 75.4979 12.92 75.3219 12.92C74.7139 12.92 74.2179 13.12 73.8339 13.52C73.4659 13.92 73.2819 14.48 73.2819 15.2V20.84H70.0419V9.8H72.4419L72.9219 11C73.1139 10.76 73.3459 10.544 73.6179 10.352C73.8419 10.176 74.1139 10.024 74.4339 9.896C74.7699 9.752 75.1459 9.68 75.5619 9.68Z" fill="#0A1B35"/>
<path d="M35.44 9.68C35.44 8.352 35.784 7.344 36.472 6.656C37.16 5.952 38.136 5.6 39.4 5.6C39.624 5.6 39.832 5.616 40.024 5.648C40.216 5.664 40.384 5.688 40.528 5.72C40.688 5.768 40.832 5.808 40.96 5.84V8.72C40.88 8.704 40.8 8.688 40.72 8.672C40.64 8.656 40.552 8.64 40.456 8.624C40.36 8.608 40.248 8.6 40.12 8.6C39.704 8.6 39.36 8.744 39.088 9.032C38.816 9.304 38.68 9.68 38.68 10.16V10.28H40.96V13.28H38.68V20.84H35.44V13.28H34V10.28H35.44V9.68Z" fill="#0A1B35"/>
<circle cx="77" cy="19" r="2" fill="#2D81FF"/>
</svg>
