<svg width="156" height="45" viewBox="0 0 156 45" fill="none" xmlns="http://www.w3.org/2000/svg">
<rect width="17.4162" height="17.4162" transform="matrix(0.769236 -0.638964 0.769236 0.638964 39 14.5531)" fill="#89B7FC"/>
<rect width="17.4162" height="17.4162" transform="matrix(0.769236 -0.638964 0.769236 0.638964 39.2056 11.1283)" fill="#2D81FF"/>
<path d="M84.08 20.84H80.84V9.8H84.08V20.84ZM80.72 6.8C80.72 6.32 80.896 5.904 81.248 5.552C81.616 5.184 82.04 5 82.52 5C83 5 83.416 5.184 83.768 5.552C84.136 5.904 84.32 6.32 84.32 6.8C84.32 7.28 84.136 7.704 83.768 8.072C83.416 8.424 83 8.6 82.52 8.6C82.04 8.6 81.616 8.424 81.248 8.072C80.896 7.704 80.72 7.28 80.72 6.8Z" fill="#0A1B35"/>
<path d="M91.64 9.68C92.296 9.68 92.896 9.792 93.44 10.016C93.984 10.224 94.448 10.536 94.832 10.952C95.232 11.352 95.536 11.84 95.744 12.416C95.968 12.992 96.08 13.64 96.08 14.36V20.84H92.84V14.96C92.84 14.24 92.648 13.68 92.264 13.28C91.896 12.88 91.408 12.68 90.8 12.68C90.192 12.68 89.696 12.88 89.312 13.28C88.944 13.68 88.76 14.24 88.76 14.96V20.84H85.52V9.8H87.92L88.4 10.88C88.656 10.656 88.952 10.456 89.288 10.28C89.576 10.136 89.92 10 90.32 9.872C90.72 9.744 91.16 9.68 91.64 9.68Z" fill="#0A1B35"/>
<path d="M101.844 20.96C101.156 20.96 100.5 20.824 99.8757 20.552C99.2517 20.264 98.6998 19.872 98.2198 19.376C97.7558 18.864 97.3798 18.264 97.0918 17.576C96.8198 16.888 96.6838 16.136 96.6838 15.32C96.6838 14.504 96.8198 13.752 97.0918 13.064C97.3798 12.376 97.7558 11.784 98.2198 11.288C98.6998 10.776 99.2517 10.384 99.8757 10.112C100.5 9.824 101.156 9.68 101.844 9.68C102.26 9.68 102.636 9.728 102.972 9.824C103.324 9.92 103.62 10.032 103.86 10.16C104.148 10.304 104.396 10.464 104.604 10.64V5.72H107.844V20.84H105.444L104.964 19.76C104.708 19.984 104.428 20.184 104.124 20.36C103.852 20.52 103.524 20.664 103.14 20.792C102.756 20.904 102.324 20.96 101.844 20.96ZM99.9237 15.32C99.9237 16.104 100.156 16.744 100.62 17.24C101.084 17.72 101.652 17.96 102.324 17.96C102.996 17.96 103.564 17.72 104.028 17.24C104.492 16.744 104.724 16.104 104.724 15.32C104.724 14.536 104.492 13.904 104.028 13.424C103.564 12.928 102.996 12.68 102.324 12.68C101.652 12.68 101.084 12.928 100.62 13.424C100.156 13.904 99.9237 14.536 99.9237 15.32Z" fill="#0A1B35"/>
<path d="M114.562 9.68C114.706 9.68 114.834 9.688 114.946 9.704C115.074 9.72 115.178 9.736 115.258 9.752C115.354 9.768 115.442 9.784 115.522 9.8V13.16C115.426 13.128 115.314 13.088 115.186 13.04C115.074 13.008 114.946 12.984 114.802 12.968C114.658 12.936 114.498 12.92 114.322 12.92C113.714 12.92 113.218 13.12 112.834 13.52C112.466 13.92 112.282 14.48 112.282 15.2V20.84H109.042V9.8H111.442L111.922 11C112.114 10.76 112.346 10.544 112.618 10.352C112.842 10.176 113.114 10.024 113.434 9.896C113.77 9.752 114.146 9.68 114.562 9.68Z" fill="#0A1B35"/>
<path d="M74.44 9.68C74.44 8.352 74.784 7.344 75.472 6.656C76.16 5.952 77.136 5.6 78.4 5.6C78.624 5.6 78.832 5.616 79.024 5.648C79.216 5.664 79.384 5.688 79.528 5.72C79.688 5.768 79.832 5.808 79.96 5.84V8.72C79.88 8.704 79.8 8.688 79.72 8.672C79.64 8.656 79.552 8.64 79.456 8.624C79.36 8.608 79.248 8.6 79.12 8.6C78.704 8.6 78.36 8.744 78.088 9.032C77.816 9.304 77.68 9.68 77.68 10.16V10.28H79.96V13.28H77.68V20.84H74.44V13.28H73V10.28H74.44V9.68Z" fill="#0A1B35"/>
<circle cx="116" cy="19" r="2" fill="#2D81FF"/>
<path d="M0.800781 41.6815H0L1.92188 36.6424H2.55859L4.48047 41.6815H3.67969L3.23828 40.5213H1.23828L0.800781 41.6815ZM2.96094 39.8026L2.23828 37.8026L1.51953 39.8026H2.96094ZM5.95438 40.5213C5.97521 40.6802 6.03641 40.8065 6.13797 40.9002C6.23953 40.994 6.39188 41.0409 6.595 41.0409C6.81896 41.0409 6.98172 40.9992 7.08328 40.9159C7.18484 40.8299 7.23563 40.7258 7.23563 40.6034C7.23563 40.4966 7.18745 40.4159 7.09109 40.3612C6.99474 40.3039 6.87495 40.257 6.73172 40.2206C6.59109 40.1815 6.43745 40.1424 6.27078 40.1034C6.10672 40.0617 5.95438 40.0044 5.81375 39.9315C5.67313 39.856 5.55464 39.7557 5.45828 39.6307C5.36193 39.5057 5.31375 39.3364 5.31375 39.1229C5.31375 38.9745 5.3424 38.8351 5.39969 38.7049C5.45958 38.5721 5.54292 38.4562 5.64969 38.3573C5.75646 38.2583 5.88536 38.1815 6.03641 38.1268C6.19005 38.0695 6.36323 38.0409 6.55594 38.0409C6.97781 38.0409 7.29682 38.1424 7.51297 38.3456C7.73172 38.5487 7.85281 38.8208 7.87625 39.162H7.15359C7.13276 39.0396 7.07286 38.9354 6.97391 38.8495C6.87495 38.7635 6.73563 38.7206 6.55594 38.7206C6.37365 38.7206 6.23432 38.7622 6.13797 38.8456C6.04161 38.9289 5.99344 39.0213 5.99344 39.1229C5.99344 39.2297 6.04161 39.3117 6.13797 39.369C6.23432 39.4237 6.35281 39.4692 6.49344 39.5057C6.63667 39.5422 6.79031 39.5812 6.95438 39.6229C7.11844 39.662 7.27078 39.7192 7.41141 39.7948C7.55464 39.8677 7.67443 39.9679 7.77078 40.0956C7.86714 40.2206 7.91531 40.3898 7.91531 40.6034C7.91531 40.9237 7.80073 41.1906 7.57156 41.4041C7.3424 41.6151 7.01688 41.7206 6.595 41.7206C6.15229 41.7206 5.82026 41.6164 5.59891 41.4081C5.37755 41.1997 5.25646 40.9041 5.23563 40.5213H5.95438ZM8.75578 41.6815H8.03703V38.0799H8.75578V41.6815ZM8.39641 37.5213C8.27401 37.5213 8.16984 37.4797 8.08391 37.3963C7.99797 37.3104 7.955 37.2049 7.955 37.0799C7.955 36.9575 7.99797 36.8547 8.08391 36.7713C8.16984 36.6854 8.27401 36.6424 8.39641 36.6424C8.5188 36.6424 8.62297 36.6854 8.70891 36.7713C8.79484 36.8547 8.83781 36.9575 8.83781 37.0799C8.83781 37.2023 8.79484 37.3065 8.70891 37.3924C8.62297 37.4784 8.5188 37.5213 8.39641 37.5213ZM12.7173 38.0409C12.8892 38.0409 13.0494 38.0747 13.1978 38.1424C13.3463 38.2075 13.4765 38.3052 13.5884 38.4354C13.7004 38.563 13.789 38.7192 13.8541 38.9041C13.9218 39.0864 13.9556 39.2922 13.9556 39.5213V41.6815H13.2369V39.5213C13.2369 39.2817 13.1679 39.089 13.0298 38.9432C12.8944 38.7948 12.7369 38.7206 12.5572 38.7206C12.3749 38.7206 12.216 38.7948 12.0806 38.9432C11.9452 39.089 11.8775 39.2817 11.8775 39.5213V41.6815H11.1548V39.5213C11.1548 39.2817 11.0871 39.089 10.9517 38.9432C10.8163 38.7948 10.6574 38.7206 10.4752 38.7206C10.2929 38.7206 10.134 38.7948 9.99859 38.9432C9.86318 39.089 9.79547 39.2817 9.79547 39.5213V41.6815H9.07672V38.0799H9.59625L9.75641 38.4432C9.82151 38.3677 9.89833 38.3 9.98688 38.2401C10.0624 38.1932 10.1548 38.1489 10.2642 38.1073C10.3736 38.063 10.4973 38.0409 10.6353 38.0409C10.8072 38.0409 10.9543 38.0708 11.0767 38.1307C11.1991 38.188 11.3033 38.2518 11.3892 38.3221C11.4856 38.4081 11.5676 38.5018 11.6353 38.6034C11.6353 38.6034 11.6588 38.5747 11.7056 38.5174C11.7499 38.4627 11.8176 38.3989 11.9088 38.326C11.9999 38.2531 12.1119 38.188 12.2447 38.1307C12.3775 38.0708 12.5351 38.0409 12.7173 38.0409ZM15.9992 38.0409C16.2388 38.0409 16.4628 38.0864 16.6711 38.1776C16.8794 38.2687 17.0617 38.3963 17.218 38.5604C17.3768 38.7219 17.5005 38.9146 17.5891 39.1385C17.6776 39.3625 17.7219 39.6099 17.7219 39.8807C17.7219 40.1515 17.6776 40.4002 17.5891 40.6268C17.5005 40.8508 17.3768 41.0448 17.218 41.2088C17.0617 41.3703 16.8794 41.4966 16.6711 41.5877C16.4628 41.6763 16.2388 41.7206 15.9992 41.7206C15.8273 41.7206 15.6802 41.701 15.5578 41.662C15.4354 41.6229 15.3326 41.576 15.2492 41.5213C15.1529 41.4614 15.0695 41.395 14.9992 41.3221V42.9627H14.2805V38.0799H14.8L14.9602 38.4432C15.0305 38.3677 15.1125 38.3 15.2063 38.2401C15.2922 38.1932 15.4003 38.1489 15.5305 38.1073C15.6607 38.063 15.8169 38.0409 15.9992 38.0409ZM15.9602 41.0409C16.0982 41.0409 16.2297 41.0135 16.3547 40.9588C16.4797 40.9015 16.5904 40.8208 16.6867 40.7166C16.7831 40.6125 16.8586 40.4901 16.9133 40.3495C16.9706 40.2088 16.9992 40.0526 16.9992 39.8807C16.9992 39.7088 16.9706 39.5526 16.9133 39.412C16.8586 39.2713 16.7831 39.1489 16.6867 39.0448C16.5904 38.9406 16.4797 38.8612 16.3547 38.8065C16.2297 38.7492 16.0982 38.7206 15.9602 38.7206C15.8221 38.7206 15.6893 38.7492 15.5617 38.8065C15.4367 38.8612 15.326 38.9406 15.2297 39.0448C15.1359 39.1489 15.0604 39.2726 15.0031 39.4159C14.9484 39.5565 14.9211 39.7114 14.9211 39.8807C14.9211 40.0526 14.9484 40.2088 15.0031 40.3495C15.0604 40.4901 15.1359 40.6125 15.2297 40.7166C15.326 40.8208 15.4367 40.9015 15.5617 40.9588C15.6893 41.0135 15.8221 41.0409 15.9602 41.0409ZM18.6014 41.6815H17.8827V36.6424H18.6014V41.6815ZM22.0825 40.6424C22.0226 40.7909 21.9471 40.9302 21.8559 41.0604C21.7648 41.1906 21.6554 41.3052 21.5278 41.4041C21.4002 41.5031 21.2518 41.5812 21.0825 41.6385C20.9158 41.6932 20.7283 41.7206 20.52 41.7206C20.2804 41.7206 20.0565 41.6763 19.8481 41.5877C19.6398 41.4966 19.4575 41.3703 19.3013 41.2088C19.145 41.0448 19.0226 40.8508 18.9341 40.6268C18.8455 40.4028 18.8013 40.1541 18.8013 39.8807C18.8013 39.6099 18.8455 39.3625 18.9341 39.1385C19.0226 38.9146 19.1424 38.7219 19.2934 38.5604C19.4445 38.3963 19.6229 38.2687 19.8286 38.1776C20.0343 38.0864 20.2518 38.0409 20.4809 38.0409C20.7101 38.0409 20.9276 38.0864 21.1333 38.1776C21.339 38.2687 21.5174 38.3963 21.6684 38.5604C21.8195 38.7219 21.9393 38.9146 22.0278 39.1385C22.1164 39.3625 22.1606 39.6099 22.1606 39.8807C22.1606 39.9224 22.158 39.964 22.1528 40.0057C22.1476 40.0448 22.1424 40.0786 22.1372 40.1073C22.132 40.1437 22.1268 40.175 22.1216 40.201H19.5591C19.5695 40.313 19.602 40.4198 19.6567 40.5213C19.7114 40.6229 19.7791 40.7127 19.8598 40.7909C19.9432 40.8664 20.0421 40.9276 20.1567 40.9745C20.2713 41.0187 20.3924 41.0409 20.52 41.0409C20.7388 41.0409 20.9119 40.994 21.0395 40.9002C21.1697 40.8065 21.2635 40.7206 21.3208 40.6424H22.0825ZM20.4809 38.7206C20.2414 38.7206 20.0382 38.8026 19.8716 38.9666C19.7075 39.1281 19.6033 39.3403 19.5591 39.6034H21.4809C21.4393 39.3429 21.3325 39.1307 21.1606 38.9666C20.9914 38.8026 20.7648 38.7206 20.4809 38.7206ZM24.7986 38.0409C25.0069 38.0409 25.197 38.0747 25.3689 38.1424C25.5434 38.2075 25.6918 38.2974 25.8142 38.412C25.9366 38.5265 26.0317 38.662 26.0994 38.8182C26.1671 38.9719 26.2009 39.1398 26.2009 39.3221V41.6815H25.6814L25.5212 41.3221C25.4509 41.3976 25.3676 41.464 25.2712 41.5213C25.1853 41.5734 25.0772 41.6203 24.947 41.662C24.8168 41.701 24.6606 41.7206 24.4783 41.7206C24.0772 41.7206 23.7699 41.6216 23.5564 41.4237C23.3455 41.2232 23.24 40.9627 23.24 40.6424C23.24 40.4601 23.2739 40.2961 23.3416 40.1502C23.4119 40.0018 23.5304 39.8768 23.697 39.7752C23.8663 39.6711 24.0942 39.5903 24.3806 39.5331C24.6697 39.4732 25.0356 39.4432 25.4783 39.4432V39.3221C25.4783 39.1398 25.421 38.994 25.3064 38.8846C25.1918 38.7752 25.0226 38.7206 24.7986 38.7206C24.559 38.7206 24.3845 38.7635 24.2752 38.8495C24.1658 38.9354 24.1007 39.0396 24.0798 39.162H23.3611C23.3819 38.8416 23.516 38.5747 23.7634 38.3612C24.0108 38.1476 24.3559 38.0409 24.7986 38.0409ZM24.5212 41.0799C24.8259 41.0799 25.0616 41.0018 25.2283 40.8456C25.3949 40.6893 25.4783 40.4992 25.4783 40.2752V40.0799C25.158 40.0799 24.8989 40.0956 24.7009 40.1268C24.5056 40.1554 24.352 40.1958 24.24 40.2479C24.128 40.2974 24.0525 40.3599 24.0134 40.4354C23.977 40.5083 23.9587 40.5903 23.9587 40.6815C23.9587 40.7831 24.0069 40.8755 24.1033 40.9588C24.1996 41.0396 24.339 41.0799 24.5212 41.0799ZM28.1977 38.0409C28.3956 38.0409 28.5818 38.0799 28.7563 38.1581C28.9333 38.2362 29.087 38.3429 29.2172 38.4784C29.3474 38.6138 29.4503 38.7778 29.5258 38.9706C29.6013 39.1607 29.6391 39.3716 29.6391 39.6034V41.6815H28.9203V39.6034C28.9203 39.4862 28.8969 39.3742 28.85 39.2674C28.8057 39.1607 28.7445 39.0669 28.6664 38.9862C28.5883 38.9054 28.4984 38.8416 28.3969 38.7948C28.2953 38.7453 28.1885 38.7206 28.0766 38.7206C27.9542 38.7206 27.8396 38.7453 27.7328 38.7948C27.626 38.8416 27.5323 38.9054 27.4516 38.9862C27.3734 39.0669 27.3109 39.1607 27.2641 39.2674C27.2198 39.3716 27.1977 39.4836 27.1977 39.6034V41.6815H26.4789V38.0799H26.9984L27.1586 38.4432C27.2289 38.3677 27.3109 38.3 27.4047 38.2401C27.4906 38.1932 27.5987 38.1489 27.7289 38.1073C27.8591 38.063 28.0154 38.0409 28.1977 38.0409ZM31.4366 41.7206C31.197 41.7206 30.973 41.6763 30.7647 41.5877C30.5564 41.4966 30.3728 41.3703 30.2139 41.2088C30.0577 41.0448 29.9353 40.8508 29.8467 40.6268C29.7608 40.4028 29.7178 40.1541 29.7178 39.8807C29.7178 39.6099 29.7608 39.3625 29.8467 39.1385C29.9353 38.9146 30.0577 38.7219 30.2139 38.5604C30.3728 38.3963 30.5564 38.2687 30.7647 38.1776C30.973 38.0864 31.197 38.0409 31.4366 38.0409C31.6084 38.0409 31.7556 38.063 31.878 38.1073C32.0004 38.1489 32.1045 38.1932 32.1905 38.2401C32.2868 38.3 32.3689 38.3677 32.4366 38.4432V36.6424H33.1553V41.6815H32.6358L32.4756 41.3221C32.4053 41.3976 32.3233 41.464 32.2295 41.5213C32.1436 41.5734 32.0355 41.6203 31.9053 41.662C31.7751 41.701 31.6189 41.7206 31.4366 41.7206ZM31.4756 38.7206C31.3376 38.7206 31.2061 38.7492 31.0811 38.8065C30.9561 38.8612 30.8454 38.9406 30.7491 39.0448C30.6527 39.1489 30.5759 39.2726 30.5186 39.4159C30.4639 39.5565 30.4366 39.7114 30.4366 39.8807C30.4366 40.0526 30.4639 40.2088 30.5186 40.3495C30.5759 40.4901 30.6527 40.6125 30.7491 40.7166C30.8454 40.8208 30.9561 40.9015 31.0811 40.9588C31.2061 41.0135 31.3376 41.0409 31.4756 41.0409C31.6136 41.0409 31.7452 41.0135 31.8702 40.9588C31.9978 40.9015 32.1084 40.8208 32.2022 40.7166C32.2985 40.6125 32.3741 40.4901 32.4288 40.3495C32.486 40.2088 32.5147 40.0526 32.5147 39.8807C32.5147 39.7088 32.486 39.5526 32.4288 39.412C32.3741 39.2713 32.2985 39.1489 32.2022 39.0448C32.1084 38.9406 31.9978 38.8612 31.8702 38.8065C31.7452 38.7492 31.6136 38.7206 31.4756 38.7206ZM35.3558 41.6815H34.637V38.0799H35.3558V41.6815ZM34.9964 37.5213C34.874 37.5213 34.7698 37.4797 34.6839 37.3963C34.598 37.3104 34.555 37.2049 34.555 37.0799C34.555 36.9575 34.598 36.8547 34.6839 36.7713C34.7698 36.6854 34.874 36.6424 34.9964 36.6424C35.1188 36.6424 35.223 36.6854 35.3089 36.7713C35.3948 36.8547 35.4378 36.9575 35.4378 37.0799C35.4378 37.2023 35.3948 37.3065 35.3089 37.3924C35.223 37.4784 35.1188 37.5213 34.9964 37.5213ZM37.3955 38.0409C37.5934 38.0409 37.7796 38.0799 37.9541 38.1581C38.1311 38.2362 38.2848 38.3429 38.415 38.4784C38.5452 38.6138 38.6481 38.7778 38.7236 38.9706C38.7991 39.1607 38.8369 39.3716 38.8369 39.6034V41.6815H38.1181V39.6034C38.1181 39.4862 38.0947 39.3742 38.0478 39.2674C38.0035 39.1607 37.9423 39.0669 37.8642 38.9862C37.7861 38.9054 37.6963 38.8416 37.5947 38.7948C37.4931 38.7453 37.3864 38.7206 37.2744 38.7206C37.152 38.7206 37.0374 38.7453 36.9306 38.7948C36.8239 38.8416 36.7301 38.9054 36.6494 38.9862C36.5713 39.0669 36.5088 39.1607 36.4619 39.2674C36.4176 39.3716 36.3955 39.4836 36.3955 39.6034V41.6815H35.6767V38.0799H36.1963L36.3564 38.4432C36.4267 38.3677 36.5088 38.3 36.6025 38.2401C36.6884 38.1932 36.7965 38.1489 36.9267 38.1073C37.0569 38.063 37.2132 38.0409 37.3955 38.0409ZM40.1539 40.4823C40.1539 40.6411 40.2073 40.7739 40.3141 40.8807C40.4208 40.9875 40.5536 41.0409 40.7125 41.0409C40.7385 41.0409 40.7659 41.0396 40.7945 41.037C40.8258 41.0344 40.8544 41.0304 40.8805 41.0252C40.9065 41.02 40.9313 41.0122 40.9547 41.0018V41.6424C40.9234 41.6581 40.8857 41.6711 40.8414 41.6815C40.7607 41.7075 40.6656 41.7206 40.5563 41.7206C40.3974 41.7206 40.249 41.6919 40.1109 41.6346C39.9755 41.5747 39.857 41.4914 39.7555 41.3846C39.6539 41.2778 39.5745 41.1489 39.5172 40.9979C39.4625 40.8469 39.4352 40.675 39.4352 40.4823V38.7596H38.7945V38.0799H39.0758C39.2138 38.0799 39.3284 38.0357 39.4195 37.9471C39.5107 37.856 39.5563 37.7414 39.5563 37.6034V37.1229H40.1539V38.0799H40.9547V38.7596H40.1539V40.4823ZM42.5569 41.7206C42.3538 41.7206 42.165 41.6828 41.9905 41.6073C41.8186 41.5291 41.6663 41.4224 41.5334 41.287C41.4032 41.1489 41.3004 40.9849 41.2248 40.7948C41.1519 40.6021 41.1155 40.3911 41.1155 40.162V38.0799H41.8342V40.162C41.8342 40.2844 41.8564 40.3989 41.9006 40.5057C41.9475 40.6125 42.0087 40.7062 42.0842 40.787C42.1623 40.8651 42.2522 40.9276 42.3538 40.9745C42.4553 41.0187 42.5621 41.0409 42.6741 41.0409C42.7913 41.0409 42.9032 41.0187 43.01 40.9745C43.1168 40.9276 43.2105 40.8651 43.2913 40.787C43.372 40.7062 43.4358 40.6125 43.4827 40.5057C43.5321 40.3989 43.5569 40.2844 43.5569 40.162V38.0799H44.2756V41.6815H43.7561L43.5959 41.3221C43.5256 41.3976 43.4423 41.464 43.3459 41.5213C43.26 41.5734 43.1519 41.6203 43.0217 41.662C42.8941 41.701 42.7392 41.7206 42.5569 41.7206ZM45.3114 41.6815H44.5927V38.0799H45.3114V41.6815ZM44.952 37.5213C44.8296 37.5213 44.7255 37.4797 44.6395 37.3963C44.5536 37.3104 44.5106 37.2049 44.5106 37.0799C44.5106 36.9575 44.5536 36.8547 44.6395 36.7713C44.7255 36.6854 44.8296 36.6424 44.952 36.6424C45.0744 36.6424 45.1786 36.6854 45.2645 36.7713C45.3505 36.8547 45.3934 36.9575 45.3934 37.0799C45.3934 37.2023 45.3505 37.3065 45.2645 37.3924C45.1786 37.4784 45.0744 37.5213 44.952 37.5213ZM46.6714 40.4823C46.6714 40.6411 46.7248 40.7739 46.8316 40.8807C46.9383 40.9875 47.0711 41.0409 47.23 41.0409C47.256 41.0409 47.2834 41.0396 47.312 41.037C47.3433 41.0344 47.3719 41.0304 47.398 41.0252C47.424 41.02 47.4487 41.0122 47.4722 41.0018V41.6424C47.4409 41.6581 47.4032 41.6711 47.3589 41.6815C47.2782 41.7075 47.1831 41.7206 47.0737 41.7206C46.9149 41.7206 46.7665 41.6919 46.6284 41.6346C46.493 41.5747 46.3745 41.4914 46.273 41.3846C46.1714 41.2778 46.092 41.1489 46.0347 40.9979C45.98 40.8469 45.9527 40.675 45.9527 40.4823V38.7596H45.312V38.0799H45.5933C45.7313 38.0799 45.8459 38.0357 45.937 37.9471C46.0282 37.856 46.0737 37.7414 46.0737 37.6034V37.1229H46.6714V38.0799H47.4722V38.7596H46.6714V40.4823ZM48.3908 41.6815H47.672V38.0799H48.3908V41.6815ZM48.0314 37.5213C47.909 37.5213 47.8048 37.4797 47.7189 37.3963C47.633 37.3104 47.59 37.2049 47.59 37.0799C47.59 36.9575 47.633 36.8547 47.7189 36.7713C47.8048 36.6854 47.909 36.6424 48.0314 36.6424C48.1538 36.6424 48.258 36.6854 48.3439 36.7713C48.4298 36.8547 48.4728 36.9575 48.4728 37.0799C48.4728 37.2023 48.4298 37.3065 48.3439 37.3924C48.258 37.4784 48.1538 37.5213 48.0314 37.5213ZM51.8328 38.0799L50.3914 41.6815H49.7508L48.3094 38.0799H49.0711L50.0711 40.6815L51.0711 38.0799H51.8328ZM54.8725 40.6424C54.8126 40.7909 54.7371 40.9302 54.6459 41.0604C54.5548 41.1906 54.4454 41.3052 54.3178 41.4041C54.1902 41.5031 54.0418 41.5812 53.8725 41.6385C53.7058 41.6932 53.5183 41.7206 53.31 41.7206C53.0704 41.7206 52.8465 41.6763 52.6381 41.5877C52.4298 41.4966 52.2475 41.3703 52.0913 41.2088C51.935 41.0448 51.8126 40.8508 51.7241 40.6268C51.6355 40.4028 51.5913 40.1541 51.5913 39.8807C51.5913 39.6099 51.6355 39.3625 51.7241 39.1385C51.8126 38.9146 51.9324 38.7219 52.0834 38.5604C52.2345 38.3963 52.4129 38.2687 52.6186 38.1776C52.8243 38.0864 53.0418 38.0409 53.2709 38.0409C53.5001 38.0409 53.7176 38.0864 53.9233 38.1776C54.129 38.2687 54.3074 38.3963 54.4584 38.5604C54.6095 38.7219 54.7293 38.9146 54.8178 39.1385C54.9064 39.3625 54.9506 39.6099 54.9506 39.8807C54.9506 39.9224 54.948 39.964 54.9428 40.0057C54.9376 40.0448 54.9324 40.0786 54.9272 40.1073C54.922 40.1437 54.9168 40.175 54.9116 40.201H52.3491C52.3595 40.313 52.392 40.4198 52.4467 40.5213C52.5014 40.6229 52.5691 40.7127 52.6498 40.7909C52.7332 40.8664 52.8321 40.9276 52.9467 40.9745C53.0613 41.0187 53.1824 41.0409 53.31 41.0409C53.5288 41.0409 53.7019 40.994 53.8295 40.9002C53.9597 40.8065 54.0535 40.7206 54.1108 40.6424H54.8725ZM53.2709 38.7206C53.0314 38.7206 52.8282 38.8026 52.6616 38.9666C52.4975 39.1281 52.3933 39.3403 52.3491 39.6034H54.2709C54.2293 39.3429 54.1225 39.1307 53.9506 38.9666C53.7814 38.8026 53.5548 38.7206 53.2709 38.7206ZM70.7903 41.6815L70.1497 41.0409C70.0585 41.1737 69.944 41.2883 69.8059 41.3846C69.6888 41.4706 69.5429 41.5487 69.3684 41.619C69.1966 41.6867 68.9908 41.7206 68.7513 41.7206C68.5481 41.7206 68.3632 41.688 68.1966 41.6229C68.0325 41.5552 67.8906 41.4653 67.7708 41.3534C67.651 41.2414 67.5572 41.1112 67.4895 40.9627C67.4244 40.8117 67.3919 40.6515 67.3919 40.4823C67.3919 40.2739 67.4335 40.0864 67.5169 39.9198C67.6028 39.7505 67.6992 39.6073 67.8059 39.4901C67.9283 39.3521 68.0703 39.2297 68.2317 39.1229L68.0325 38.8807C67.9726 38.8104 67.9114 38.7401 67.8489 38.6698C67.789 38.5969 67.733 38.52 67.6809 38.4393C67.6315 38.356 67.5911 38.2661 67.5598 38.1698C67.5286 38.0734 67.513 37.964 67.513 37.8416C67.513 37.6828 67.5455 37.5317 67.6106 37.3885C67.6783 37.2427 67.7682 37.1138 67.8802 37.0018C67.9921 36.8898 68.1223 36.8026 68.2708 36.7401C68.4218 36.675 68.582 36.6424 68.7513 36.6424C68.9231 36.6424 69.0833 36.675 69.2317 36.7401C69.3802 36.8026 69.5104 36.8898 69.6223 37.0018C69.7343 37.1138 69.8242 37.2427 69.8919 37.3885C69.9596 37.5317 69.9934 37.6828 69.9934 37.8416C69.9934 37.9692 69.9765 38.0851 69.9427 38.1893C69.9114 38.2935 69.8684 38.3872 69.8138 38.4706C69.7617 38.5513 69.7018 38.6255 69.6341 38.6932C69.569 38.7609 69.5013 38.8234 69.4309 38.8807L69.1497 39.1229L70.0716 40.0409L70.552 39.2831H71.3528L70.552 40.5213L71.7122 41.6815H70.7903ZM68.7122 38.6815L68.9934 38.4432C69.0143 38.4276 69.0416 38.4002 69.0755 38.3612C69.1093 38.3195 69.1432 38.2726 69.177 38.2206C69.2135 38.1659 69.2447 38.1073 69.2708 38.0448C69.2968 37.9797 69.3098 37.912 69.3098 37.8416C69.3098 37.7036 69.2565 37.5825 69.1497 37.4784C69.0455 37.3742 68.9127 37.3221 68.7513 37.3221C68.5924 37.3221 68.4596 37.3742 68.3528 37.4784C68.246 37.5825 68.1927 37.7036 68.1927 37.8416C68.1927 37.9224 68.2057 37.9979 68.2317 38.0682C68.2578 38.1359 68.2864 38.1958 68.3177 38.2479C68.3515 38.2974 68.3828 38.339 68.4114 38.3729C68.4401 38.4067 68.4596 38.4302 68.47 38.4432L68.7122 38.6815ZM68.7903 41.0799C68.9283 41.0799 69.0546 41.0552 69.1692 41.0057C69.2864 40.9536 69.3841 40.8989 69.4622 40.8416C69.5585 40.7713 69.6419 40.6919 69.7122 40.6034L68.7122 39.6034C68.6002 39.6789 68.4986 39.7609 68.4075 39.8495C68.332 39.925 68.263 40.0174 68.2005 40.1268C68.1406 40.2362 68.1106 40.3547 68.1106 40.4823C68.1106 40.6411 68.1731 40.7804 68.2981 40.9002C68.4231 41.02 68.5872 41.0799 68.7903 41.0799ZM95.9919 40.3612C95.9502 40.5539 95.8838 40.7336 95.7927 40.9002C95.7015 41.0643 95.5856 41.2075 95.445 41.3299C95.307 41.4523 95.1481 41.5487 94.9684 41.619C94.7914 41.6867 94.5986 41.7206 94.3903 41.7206C94.1507 41.7206 93.9268 41.6763 93.7184 41.5877C93.5101 41.4966 93.3265 41.3703 93.1677 41.2088C93.0114 41.0448 92.889 40.8508 92.8005 40.6268C92.7145 40.4028 92.6716 40.1541 92.6716 39.8807C92.6716 39.6099 92.7145 39.3625 92.8005 39.1385C92.889 38.9146 93.0114 38.7219 93.1677 38.5604C93.3265 38.3963 93.5101 38.2687 93.7184 38.1776C93.9268 38.0864 94.1507 38.0409 94.3903 38.0409C94.5986 38.0409 94.7914 38.076 94.9684 38.1463C95.1481 38.214 95.307 38.3104 95.445 38.4354C95.5856 38.5578 95.7002 38.7023 95.7887 38.869C95.8799 39.0331 95.9476 39.2101 95.9919 39.4002H95.2302C95.1703 39.1971 95.0713 39.0331 94.9333 38.9081C94.7953 38.7831 94.6143 38.7206 94.3903 38.7206C94.2627 38.7206 94.1377 38.7492 94.0153 38.8065C93.8929 38.8612 93.7861 38.9406 93.695 39.0448C93.6039 39.1489 93.5296 39.2726 93.4723 39.4159C93.4177 39.5565 93.3903 39.7114 93.3903 39.8807C93.3903 40.0526 93.4177 40.2088 93.4723 40.3495C93.5296 40.4901 93.6039 40.6125 93.695 40.7166C93.7861 40.8208 93.8929 40.9015 94.0153 40.9588C94.1377 41.0135 94.2627 41.0409 94.3903 41.0409C94.6143 41.0409 94.7953 40.9784 94.9333 40.8534C95.0739 40.7284 95.1729 40.5643 95.2302 40.3612H95.9919ZM98.5941 39.8807C98.5941 39.7088 98.5654 39.5526 98.5081 39.412C98.4534 39.2713 98.3805 39.1489 98.2894 39.0448C98.1982 38.9406 98.0915 38.8612 97.9691 38.8065C97.8467 38.7492 97.7217 38.7206 97.5941 38.7206C97.4665 38.7206 97.3415 38.7492 97.2191 38.8065C97.0967 38.8612 96.9899 38.9406 96.8988 39.0448C96.8076 39.1489 96.7334 39.2726 96.6761 39.4159C96.6214 39.5565 96.5941 39.7114 96.5941 39.8807C96.5941 40.0526 96.6214 40.2088 96.6761 40.3495C96.7334 40.4901 96.8076 40.6125 96.8988 40.7166C96.9899 40.8208 97.0967 40.9015 97.2191 40.9588C97.3415 41.0135 97.4665 41.0409 97.5941 41.0409C97.7217 41.0409 97.8467 41.0135 97.9691 40.9588C98.0915 40.9015 98.1982 40.8208 98.2894 40.7166C98.3805 40.6125 98.4534 40.4901 98.5081 40.3495C98.5654 40.2088 98.5941 40.0526 98.5941 39.8807ZM99.3128 39.8807C99.3128 40.1515 99.2685 40.4002 99.18 40.6268C99.0941 40.8508 98.9717 41.0448 98.8128 41.2088C98.6566 41.3703 98.4743 41.4966 98.2659 41.5877C98.0576 41.6763 97.8336 41.7206 97.5941 41.7206C97.3545 41.7206 97.1305 41.6763 96.9222 41.5877C96.7139 41.4966 96.5303 41.3703 96.3714 41.2088C96.2152 41.0448 96.0928 40.8508 96.0042 40.6268C95.9183 40.4028 95.8753 40.1541 95.8753 39.8807C95.8753 39.6099 95.9183 39.3625 96.0042 39.1385C96.0928 38.9146 96.2152 38.7219 96.3714 38.5604C96.5303 38.3963 96.7139 38.2687 96.9222 38.1776C97.1305 38.0864 97.3545 38.0409 97.5941 38.0409C97.8336 38.0409 98.0576 38.0864 98.2659 38.1776C98.4743 38.2687 98.6566 38.3963 98.8128 38.5604C98.9717 38.7219 99.0941 38.9146 99.18 39.1385C99.2685 39.3625 99.3128 39.6099 99.3128 39.8807ZM103.075 38.0409C103.247 38.0409 103.407 38.0747 103.556 38.1424C103.704 38.2075 103.834 38.3052 103.946 38.4354C104.058 38.563 104.147 38.7192 104.212 38.9041C104.28 39.0864 104.313 39.2922 104.313 39.5213V41.6815H103.595V39.5213C103.595 39.2817 103.526 39.089 103.388 38.9432C103.252 38.7948 103.095 38.7206 102.915 38.7206C102.733 38.7206 102.574 38.7948 102.438 38.9432C102.303 39.089 102.235 39.2817 102.235 39.5213V41.6815H101.513V39.5213C101.513 39.2817 101.445 39.089 101.31 38.9432C101.174 38.7948 101.015 38.7206 100.833 38.7206C100.651 38.7206 100.492 38.7948 100.356 38.9432C100.221 39.089 100.153 39.2817 100.153 39.5213V41.6815H99.4345V38.0799H99.9541L100.114 38.4432C100.179 38.3677 100.256 38.3 100.345 38.2401C100.42 38.1932 100.513 38.1489 100.622 38.1073C100.731 38.063 100.855 38.0409 100.993 38.0409C101.165 38.0409 101.312 38.0708 101.435 38.1307C101.557 38.188 101.661 38.2518 101.747 38.3221C101.843 38.4081 101.925 38.5018 101.993 38.6034C101.993 38.6034 102.017 38.5747 102.063 38.5174C102.108 38.4627 102.175 38.3989 102.267 38.326C102.358 38.2531 102.47 38.188 102.603 38.1307C102.735 38.0708 102.893 38.0409 103.075 38.0409ZM108.279 38.0409C108.451 38.0409 108.611 38.0747 108.759 38.1424C108.908 38.2075 109.038 38.3052 109.15 38.4354C109.262 38.563 109.351 38.7192 109.416 38.9041C109.483 39.0864 109.517 39.2922 109.517 39.5213V41.6815H108.798V39.5213C108.798 39.2817 108.729 39.089 108.591 38.9432C108.456 38.7948 108.298 38.7206 108.119 38.7206C107.936 38.7206 107.778 38.7948 107.642 38.9432C107.507 39.089 107.439 39.2817 107.439 39.5213V41.6815H106.716V39.5213C106.716 39.2817 106.649 39.089 106.513 38.9432C106.378 38.7948 106.219 38.7206 106.037 38.7206C105.854 38.7206 105.696 38.7948 105.56 38.9432C105.425 39.089 105.357 39.2817 105.357 39.5213V41.6815H104.638V38.0799H105.158L105.318 38.4432C105.383 38.3677 105.46 38.3 105.548 38.2401C105.624 38.1932 105.716 38.1489 105.826 38.1073C105.935 38.063 106.059 38.0409 106.197 38.0409C106.369 38.0409 106.516 38.0708 106.638 38.1307C106.761 38.188 106.865 38.2518 106.951 38.3221C107.047 38.4081 107.129 38.5018 107.197 38.6034C107.197 38.6034 107.22 38.5747 107.267 38.5174C107.311 38.4627 107.379 38.3989 107.47 38.326C107.561 38.2531 107.673 38.188 107.806 38.1307C107.939 38.0708 108.097 38.0409 108.279 38.0409ZM111.24 38.0409C111.449 38.0409 111.639 38.0747 111.811 38.1424C111.985 38.2075 112.134 38.2974 112.256 38.412C112.378 38.5265 112.474 38.662 112.541 38.8182C112.609 38.9719 112.643 39.1398 112.643 39.3221V41.6815H112.123L111.963 41.3221C111.893 41.3976 111.809 41.464 111.713 41.5213C111.627 41.5734 111.519 41.6203 111.389 41.662C111.259 41.701 111.102 41.7206 110.92 41.7206C110.519 41.7206 110.212 41.6216 109.998 41.4237C109.787 41.2232 109.682 40.9627 109.682 40.6424C109.682 40.4601 109.716 40.2961 109.783 40.1502C109.854 40.0018 109.972 39.8768 110.139 39.7752C110.308 39.6711 110.536 39.5903 110.823 39.5331C111.112 39.4732 111.477 39.4432 111.92 39.4432V39.3221C111.92 39.1398 111.863 38.994 111.748 38.8846C111.634 38.7752 111.464 38.7206 111.24 38.7206C111.001 38.7206 110.826 38.7635 110.717 38.8495C110.608 38.9354 110.543 39.0396 110.522 39.162H109.803C109.824 38.8416 109.958 38.5747 110.205 38.3612C110.453 38.1476 110.798 38.0409 111.24 38.0409ZM110.963 41.0799C111.268 41.0799 111.503 41.0018 111.67 40.8456C111.837 40.6893 111.92 40.4992 111.92 40.2752V40.0799C111.6 40.0799 111.341 40.0956 111.143 40.1268C110.948 40.1554 110.794 40.1958 110.682 40.2479C110.57 40.2974 110.494 40.3599 110.455 40.4354C110.419 40.5083 110.401 40.5903 110.401 40.6815C110.401 40.7831 110.449 40.8755 110.545 40.9588C110.642 41.0396 110.781 41.0799 110.963 41.0799ZM114.64 38.0409C114.837 38.0409 115.024 38.0799 115.198 38.1581C115.375 38.2362 115.529 38.3429 115.659 38.4784C115.789 38.6138 115.892 38.7778 115.968 38.9706C116.043 39.1607 116.081 39.3716 116.081 39.6034V41.6815H115.362V39.6034C115.362 39.4862 115.339 39.3742 115.292 39.2674C115.248 39.1607 115.186 39.0669 115.108 38.9862C115.03 38.9054 114.94 38.8416 114.839 38.7948C114.737 38.7453 114.63 38.7206 114.518 38.7206C114.396 38.7206 114.281 38.7453 114.175 38.7948C114.068 38.8416 113.974 38.9054 113.893 38.9862C113.815 39.0669 113.753 39.1607 113.706 39.2674C113.662 39.3716 113.64 39.4836 113.64 39.6034V41.6815H112.921V38.0799H113.44L113.6 38.4432C113.671 38.3677 113.753 38.3 113.847 38.2401C113.933 38.1932 114.041 38.1489 114.171 38.1073C114.301 38.063 114.457 38.0409 114.64 38.0409ZM117.878 41.7206C117.639 41.7206 117.415 41.6763 117.207 41.5877C116.998 41.4966 116.815 41.3703 116.656 41.2088C116.5 41.0448 116.377 40.8508 116.289 40.6268C116.203 40.4028 116.16 40.1541 116.16 39.8807C116.16 39.6099 116.203 39.3625 116.289 39.1385C116.377 38.9146 116.5 38.7219 116.656 38.5604C116.815 38.3963 116.998 38.2687 117.207 38.1776C117.415 38.0864 117.639 38.0409 117.878 38.0409C118.05 38.0409 118.197 38.063 118.32 38.1073C118.442 38.1489 118.546 38.1932 118.632 38.2401C118.729 38.3 118.811 38.3677 118.878 38.4432V36.6424H119.597V41.6815H119.078L118.918 41.3221C118.847 41.3976 118.765 41.464 118.671 41.5213C118.585 41.5734 118.477 41.6203 118.347 41.662C118.217 41.701 118.061 41.7206 117.878 41.7206ZM117.918 38.7206C117.779 38.7206 117.648 38.7492 117.523 38.8065C117.398 38.8612 117.287 38.9406 117.191 39.0448C117.095 39.1489 117.018 39.2726 116.96 39.4159C116.906 39.5565 116.878 39.7114 116.878 39.8807C116.878 40.0526 116.906 40.2088 116.96 40.3495C117.018 40.4901 117.095 40.6125 117.191 40.7166C117.287 40.8208 117.398 40.9015 117.523 40.9588C117.648 41.0135 117.779 41.0409 117.918 41.0409C118.056 41.0409 118.187 41.0135 118.312 40.9588C118.44 40.9015 118.55 40.8208 118.644 40.7166C118.74 40.6125 118.816 40.4901 118.871 40.3495C118.928 40.2088 118.957 40.0526 118.957 39.8807C118.957 39.7088 118.928 39.5526 118.871 39.412C118.816 39.2713 118.74 39.1489 118.644 39.0448C118.55 38.9406 118.44 38.8612 118.312 38.8065C118.187 38.7492 118.056 38.7206 117.918 38.7206ZM122.039 39.9627H119.719V39.3221H122.039V39.9627ZM122.876 41.6815H122.157V36.6424H122.876V41.6815ZM123.955 41.6815H123.236V38.0799H123.955V41.6815ZM123.595 37.5213C123.473 37.5213 123.369 37.4797 123.283 37.3963C123.197 37.3104 123.154 37.2049 123.154 37.0799C123.154 36.9575 123.197 36.8547 123.283 36.7713C123.369 36.6854 123.473 36.6424 123.595 36.6424C123.718 36.6424 123.822 36.6854 123.908 36.7713C123.994 36.8547 124.037 36.9575 124.037 37.0799C124.037 37.2023 123.994 37.3065 123.908 37.3924C123.822 37.4784 123.718 37.5213 123.595 37.5213ZM125.994 38.0409C126.192 38.0409 126.378 38.0799 126.553 38.1581C126.73 38.2362 126.884 38.3429 127.014 38.4784C127.144 38.6138 127.247 38.7778 127.322 38.9706C127.398 39.1607 127.436 39.3716 127.436 39.6034V41.6815H126.717V39.6034C126.717 39.4862 126.693 39.3742 126.647 39.2674C126.602 39.1607 126.541 39.0669 126.463 38.9862C126.385 38.9054 126.295 38.8416 126.193 38.7948C126.092 38.7453 125.985 38.7206 125.873 38.7206C125.751 38.7206 125.636 38.7453 125.529 38.7948C125.423 38.8416 125.329 38.9054 125.248 38.9862C125.17 39.0669 125.107 39.1607 125.061 39.2674C125.016 39.3716 124.994 39.4836 124.994 39.6034V41.6815H124.275V38.0799H124.795L124.955 38.4432C125.025 38.3677 125.107 38.3 125.201 38.2401C125.287 38.1932 125.395 38.1489 125.525 38.1073C125.656 38.063 125.812 38.0409 125.994 38.0409ZM130.835 40.6424C130.775 40.7909 130.699 40.9302 130.608 41.0604C130.517 41.1906 130.408 41.3052 130.28 41.4041C130.152 41.5031 130.004 41.5812 129.835 41.6385C129.668 41.6932 129.481 41.7206 129.272 41.7206C129.033 41.7206 128.809 41.6763 128.6 41.5877C128.392 41.4966 128.21 41.3703 128.053 41.2088C127.897 41.0448 127.775 40.8508 127.686 40.6268C127.598 40.4028 127.553 40.1541 127.553 39.8807C127.553 39.6099 127.598 39.3625 127.686 39.1385C127.775 38.9146 127.895 38.7219 128.046 38.5604C128.197 38.3963 128.375 38.2687 128.581 38.1776C128.787 38.0864 129.004 38.0409 129.233 38.0409C129.462 38.0409 129.68 38.0864 129.885 38.1776C130.091 38.2687 130.27 38.3963 130.421 38.5604C130.572 38.7219 130.691 38.9146 130.78 39.1385C130.869 39.3625 130.913 39.6099 130.913 39.8807C130.913 39.9224 130.91 39.964 130.905 40.0057C130.9 40.0448 130.895 40.0786 130.889 40.1073C130.884 40.1437 130.879 40.175 130.874 40.201H128.311C128.322 40.313 128.354 40.4198 128.409 40.5213C128.464 40.6229 128.531 40.7127 128.612 40.7909C128.695 40.8664 128.794 40.9276 128.909 40.9745C129.023 41.0187 129.145 41.0409 129.272 41.0409C129.491 41.0409 129.664 40.994 129.792 40.9002C129.922 40.8065 130.016 40.7206 130.073 40.6424H130.835ZM129.233 38.7206C128.994 38.7206 128.79 38.8026 128.624 38.9666C128.46 39.1281 128.356 39.3403 128.311 39.6034H130.233C130.191 39.3429 130.085 39.1307 129.913 38.9666C129.744 38.8026 129.517 38.7206 129.233 38.7206ZM132.871 41.6815H132.152V38.0799H132.871V41.6815ZM132.512 37.5213C132.389 37.5213 132.285 37.4797 132.199 37.3963C132.113 37.3104 132.07 37.2049 132.07 37.0799C132.07 36.9575 132.113 36.8547 132.199 36.7713C132.285 36.6854 132.389 36.6424 132.512 36.6424C132.634 36.6424 132.738 36.6854 132.824 36.7713C132.91 36.8547 132.953 36.9575 132.953 37.0799C132.953 37.2023 132.91 37.3065 132.824 37.3924C132.738 37.4784 132.634 37.5213 132.512 37.5213ZM134.911 38.0409C135.109 38.0409 135.295 38.0799 135.469 38.1581C135.646 38.2362 135.8 38.3429 135.93 38.4784C136.061 38.6138 136.163 38.7778 136.239 38.9706C136.314 39.1607 136.352 39.3716 136.352 39.6034V41.6815H135.633V39.6034C135.633 39.4862 135.61 39.3742 135.563 39.2674C135.519 39.1607 135.458 39.0669 135.38 38.9862C135.301 38.9054 135.212 38.8416 135.11 38.7948C135.008 38.7453 134.902 38.7206 134.79 38.7206C134.667 38.7206 134.553 38.7453 134.446 38.7948C134.339 38.8416 134.245 38.9054 134.165 38.9862C134.087 39.0669 134.024 39.1607 133.977 39.2674C133.933 39.3716 133.911 39.4836 133.911 39.6034V41.6815H133.192V38.0799H133.712L133.872 38.4432C133.942 38.3677 134.024 38.3 134.118 38.2401C134.204 38.1932 134.312 38.1489 134.442 38.1073C134.572 38.063 134.728 38.0409 134.911 38.0409ZM137.669 40.4823C137.669 40.6411 137.723 40.7739 137.829 40.8807C137.936 40.9875 138.069 41.0409 138.228 41.0409C138.254 41.0409 138.281 41.0396 138.31 41.037C138.341 41.0344 138.37 41.0304 138.396 41.0252C138.422 41.02 138.447 41.0122 138.47 41.0018V41.6424C138.439 41.6581 138.401 41.6711 138.357 41.6815C138.276 41.7075 138.181 41.7206 138.072 41.7206C137.913 41.7206 137.764 41.6919 137.626 41.6346C137.491 41.5747 137.372 41.4914 137.271 41.3846C137.169 41.2778 137.09 41.1489 137.033 40.9979C136.978 40.8469 136.95 40.675 136.95 40.4823V38.7596H136.31V38.0799H136.591C136.729 38.0799 136.844 38.0357 136.935 37.9471C137.026 37.856 137.072 37.7414 137.072 37.6034V37.1229H137.669V38.0799H138.47V38.7596H137.669V40.4823ZM141.713 40.6424C141.653 40.7909 141.577 40.9302 141.486 41.0604C141.395 41.1906 141.286 41.3052 141.158 41.4041C141.031 41.5031 140.882 41.5812 140.713 41.6385C140.546 41.6932 140.359 41.7206 140.15 41.7206C139.911 41.7206 139.687 41.6763 139.478 41.5877C139.27 41.4966 139.088 41.3703 138.932 41.2088C138.775 41.0448 138.653 40.8508 138.564 40.6268C138.476 40.4028 138.432 40.1541 138.432 39.8807C138.432 39.6099 138.476 39.3625 138.564 39.1385C138.653 38.9146 138.773 38.7219 138.924 38.5604C139.075 38.3963 139.253 38.2687 139.459 38.1776C139.665 38.0864 139.882 38.0409 140.111 38.0409C140.34 38.0409 140.558 38.0864 140.764 38.1776C140.969 38.2687 141.148 38.3963 141.299 38.5604C141.45 38.7219 141.57 38.9146 141.658 39.1385C141.747 39.3625 141.791 39.6099 141.791 39.8807C141.791 39.9224 141.788 39.964 141.783 40.0057C141.778 40.0448 141.773 40.0786 141.768 40.1073C141.762 40.1437 141.757 40.175 141.752 40.201H139.189C139.2 40.313 139.232 40.4198 139.287 40.5213C139.342 40.6229 139.409 40.7127 139.49 40.7909C139.573 40.8664 139.672 40.9276 139.787 40.9745C139.902 41.0187 140.023 41.0409 140.15 41.0409C140.369 41.0409 140.542 40.994 140.67 40.9002C140.8 40.8065 140.894 40.7206 140.951 40.6424H141.713ZM140.111 38.7206C139.872 38.7206 139.669 38.8026 139.502 38.9666C139.338 39.1281 139.234 39.3403 139.189 39.6034H141.111C141.07 39.3429 140.963 39.1307 140.791 38.9666C140.622 38.8026 140.395 38.7206 140.111 38.7206ZM143.51 38.0409C143.552 38.0409 143.586 38.0435 143.612 38.0487C143.641 38.0539 143.667 38.0591 143.69 38.0643C143.711 38.0695 143.732 38.0747 143.753 38.0799V38.8026C143.732 38.7974 143.707 38.7922 143.678 38.787C143.652 38.7817 143.625 38.7765 143.596 38.7713C143.568 38.7635 143.539 38.7596 143.51 38.7596C143.388 38.7596 143.273 38.7844 143.167 38.8338C143.06 38.8807 142.966 38.9445 142.885 39.0252C142.807 39.106 142.745 39.1997 142.698 39.3065C142.654 39.4133 142.631 39.5252 142.631 39.6424V41.6815H141.913V38.0799H142.432L142.592 38.4432C142.657 38.3677 142.734 38.3 142.823 38.2401C142.898 38.1932 142.993 38.1489 143.108 38.1073C143.223 38.063 143.357 38.0409 143.51 38.0409ZM145.468 38.7596H144.667V41.6815H143.948V38.7596H143.507V38.0799H143.948V37.8416C143.948 37.6489 143.976 37.4771 144.03 37.326C144.088 37.1724 144.166 37.0435 144.265 36.9393C144.366 36.8325 144.485 36.7505 144.62 36.6932C144.758 36.6333 144.907 36.6034 145.066 36.6034C145.126 36.6034 145.179 36.6073 145.226 36.6151C145.275 36.6229 145.318 36.632 145.355 36.6424C145.396 36.6581 145.434 36.6711 145.468 36.6815V37.3221C145.447 37.3169 145.422 37.3117 145.394 37.3065C145.368 37.3013 145.34 37.2961 145.312 37.2909C145.283 37.2857 145.254 37.2831 145.226 37.2831C145.067 37.2831 144.934 37.3364 144.827 37.4432C144.721 37.55 144.667 37.6828 144.667 37.8416V38.0799H145.468V38.7596ZM146.828 38.0409C147.036 38.0409 147.226 38.0747 147.398 38.1424C147.573 38.2075 147.721 38.2974 147.844 38.412C147.966 38.5265 148.061 38.662 148.129 38.8182C148.196 38.9719 148.23 39.1398 148.23 39.3221V41.6815H147.711L147.551 41.3221C147.48 41.3976 147.397 41.464 147.301 41.5213C147.215 41.5734 147.107 41.6203 146.976 41.662C146.846 41.701 146.69 41.7206 146.508 41.7206C146.107 41.7206 145.799 41.6216 145.586 41.4237C145.375 41.2232 145.269 40.9627 145.269 40.6424C145.269 40.4601 145.303 40.2961 145.371 40.1502C145.441 40.0018 145.56 39.8768 145.726 39.7752C145.896 39.6711 146.124 39.5903 146.41 39.5331C146.699 39.4732 147.065 39.4432 147.508 39.4432V39.3221C147.508 39.1398 147.45 38.994 147.336 38.8846C147.221 38.7752 147.052 38.7206 146.828 38.7206C146.588 38.7206 146.414 38.7635 146.305 38.8495C146.195 38.9354 146.13 39.0396 146.109 39.162H145.39C145.411 38.8416 145.545 38.5747 145.793 38.3612C146.04 38.1476 146.385 38.0409 146.828 38.0409ZM146.551 41.0799C146.855 41.0799 147.091 41.0018 147.258 40.8456C147.424 40.6893 147.508 40.4992 147.508 40.2752V40.0799C147.187 40.0799 146.928 40.0956 146.73 40.1268C146.535 40.1554 146.381 40.1958 146.269 40.2479C146.157 40.2974 146.082 40.3599 146.043 40.4354C146.006 40.5083 145.988 40.5903 145.988 40.6815C145.988 40.7831 146.036 40.8755 146.133 40.9588C146.229 41.0396 146.368 41.0799 146.551 41.0799ZM151.629 40.3612C151.588 40.5539 151.521 40.7336 151.43 40.9002C151.339 41.0643 151.223 41.2075 151.083 41.3299C150.944 41.4523 150.786 41.5487 150.606 41.619C150.429 41.6867 150.236 41.7206 150.028 41.7206C149.788 41.7206 149.564 41.6763 149.356 41.5877C149.148 41.4966 148.964 41.3703 148.805 41.2088C148.649 41.0448 148.527 40.8508 148.438 40.6268C148.352 40.4028 148.309 40.1541 148.309 39.8807C148.309 39.6099 148.352 39.3625 148.438 39.1385C148.527 38.9146 148.649 38.7219 148.805 38.5604C148.964 38.3963 149.148 38.2687 149.356 38.1776C149.564 38.0864 149.788 38.0409 150.028 38.0409C150.236 38.0409 150.429 38.076 150.606 38.1463C150.786 38.214 150.944 38.3104 151.083 38.4354C151.223 38.5578 151.338 38.7023 151.426 38.869C151.517 39.0331 151.585 39.2101 151.629 39.4002H150.868C150.808 39.1971 150.709 39.0331 150.571 38.9081C150.433 38.7831 150.252 38.7206 150.028 38.7206C149.9 38.7206 149.775 38.7492 149.653 38.8065C149.53 38.8612 149.424 38.9406 149.333 39.0448C149.241 39.1489 149.167 39.2726 149.11 39.4159C149.055 39.5565 149.028 39.7114 149.028 39.8807C149.028 40.0526 149.055 40.2088 149.11 40.3495C149.167 40.4901 149.241 40.6125 149.333 40.7166C149.424 40.8208 149.53 40.9015 149.653 40.9588C149.775 41.0135 149.9 41.0409 150.028 41.0409C150.252 41.0409 150.433 40.9784 150.571 40.8534C150.711 40.7284 150.81 40.5643 150.868 40.3612H151.629ZM154.833 40.6424C154.773 40.7909 154.698 40.9302 154.607 41.0604C154.515 41.1906 154.406 41.3052 154.278 41.4041C154.151 41.5031 154.002 41.5812 153.833 41.6385C153.666 41.6932 153.479 41.7206 153.271 41.7206C153.031 41.7206 152.807 41.6763 152.599 41.5877C152.39 41.4966 152.208 41.3703 152.052 41.2088C151.896 41.0448 151.773 40.8508 151.685 40.6268C151.596 40.4028 151.552 40.1541 151.552 39.8807C151.552 39.6099 151.596 39.3625 151.685 39.1385C151.773 38.9146 151.893 38.7219 152.044 38.5604C152.195 38.3963 152.373 38.2687 152.579 38.1776C152.785 38.0864 153.002 38.0409 153.232 38.0409C153.461 38.0409 153.678 38.0864 153.884 38.1776C154.09 38.2687 154.268 38.3963 154.419 38.5604C154.57 38.7219 154.69 38.9146 154.778 39.1385C154.867 39.3625 154.911 39.6099 154.911 39.8807C154.911 39.9224 154.909 39.964 154.903 40.0057C154.898 40.0448 154.893 40.0786 154.888 40.1073C154.883 40.1437 154.877 40.175 154.872 40.201H152.31C152.32 40.313 152.353 40.4198 152.407 40.5213C152.462 40.6229 152.53 40.7127 152.61 40.7909C152.694 40.8664 152.793 40.9276 152.907 40.9745C153.022 41.0187 153.143 41.0409 153.271 41.0409C153.489 41.0409 153.663 40.994 153.79 40.9002C153.92 40.8065 154.014 40.7206 154.071 40.6424H154.833ZM153.232 38.7206C152.992 38.7206 152.789 38.8026 152.622 38.9666C152.458 39.1281 152.354 39.3403 152.31 39.6034H154.232C154.19 39.3429 154.083 39.1307 153.911 38.9666C153.742 38.8026 153.515 38.7206 153.232 38.7206ZM155.674 41.2831C155.674 41.4054 155.631 41.5096 155.545 41.5956C155.459 41.6789 155.355 41.7206 155.232 41.7206C155.11 41.7206 155.006 41.6789 154.92 41.5956C154.834 41.5096 154.791 41.4054 154.791 41.2831C154.791 41.1607 154.834 41.0565 154.92 40.9706C155.006 40.8846 155.11 40.8416 155.232 40.8416C155.355 40.8416 155.459 40.8846 155.545 40.9706C155.631 41.0565 155.674 41.1607 155.674 41.2831Z" fill="#0A1B35"/>
<path d="M59.0691 41.6815H58.3503V38.7596H57.03V41.6815H56.3112V38.7596H55.8698V38.0799H56.3112V37.8416C56.3112 37.6489 56.3386 37.4771 56.3933 37.326C56.4506 37.1724 56.5287 37.0435 56.6277 36.9393C56.7292 36.8325 56.8477 36.7505 56.9831 36.6932C57.1211 36.6333 57.2696 36.6034 57.4284 36.6034C57.4883 36.6034 57.5417 36.6073 57.5886 36.6151C57.6381 36.6229 57.681 36.632 57.7175 36.6424C57.7592 36.6581 57.7969 36.6711 57.8308 36.6815V37.3221C57.8099 37.3169 57.7852 37.3117 57.7566 37.3065C57.7305 37.3013 57.7032 37.2961 57.6745 37.2909C57.6459 37.2857 57.6172 37.2831 57.5886 37.2831C57.4297 37.2831 57.2969 37.3364 57.1902 37.4432C57.0834 37.55 57.03 37.6828 57.03 37.8416V38.0799H59.0691V41.6815ZM58.7097 37.5213C58.5873 37.5213 58.4831 37.4797 58.3972 37.3963C58.3112 37.3104 58.2683 37.2049 58.2683 37.0799C58.2683 36.9575 58.3112 36.8547 58.3972 36.7713C58.4831 36.6854 58.5873 36.6424 58.7097 36.6424C58.8321 36.6424 58.9362 36.6854 59.0222 36.7713C59.1081 36.8547 59.1511 36.9575 59.1511 37.0799C59.1511 37.2023 59.1081 37.3065 59.0222 37.3924C58.9362 37.4784 58.8321 37.5213 58.7097 37.5213ZM61.1127 38.0409C61.3106 38.0409 61.4968 38.0799 61.6712 38.1581C61.8483 38.2362 62.002 38.3429 62.1322 38.4784C62.2624 38.6138 62.3653 38.7778 62.4408 38.9706C62.5163 39.1607 62.5541 39.3716 62.5541 39.6034V41.6815H61.8353V39.6034C61.8353 39.4862 61.8119 39.3742 61.765 39.2674C61.7207 39.1607 61.6595 39.0669 61.5814 38.9862C61.5033 38.9054 61.4134 38.8416 61.3119 38.7948C61.2103 38.7453 61.1035 38.7206 60.9916 38.7206C60.8692 38.7206 60.7546 38.7453 60.6478 38.7948C60.541 38.8416 60.4473 38.9054 60.3666 38.9862C60.2884 39.0669 60.2259 39.1607 60.1791 39.2674C60.1348 39.3716 60.1127 39.4836 60.1127 39.6034V41.6815H59.3939V38.0799H59.9134L60.0736 38.4432C60.1439 38.3677 60.2259 38.3 60.3197 38.2401C60.4056 38.1932 60.5137 38.1489 60.6439 38.1073C60.7741 38.063 60.9304 38.0409 61.1127 38.0409ZM64.3516 41.7206C64.112 41.7206 63.888 41.6763 63.6797 41.5877C63.4714 41.4966 63.2878 41.3703 63.1289 41.2088C62.9727 41.0448 62.8503 40.8508 62.7617 40.6268C62.6758 40.4028 62.6328 40.1541 62.6328 39.8807C62.6328 39.6099 62.6758 39.3625 62.7617 39.1385C62.8503 38.9146 62.9727 38.7219 63.1289 38.5604C63.2878 38.3963 63.4714 38.2687 63.6797 38.1776C63.888 38.0864 64.112 38.0409 64.3516 38.0409C64.5234 38.0409 64.6706 38.063 64.793 38.1073C64.9154 38.1489 65.0195 38.1932 65.1055 38.2401C65.2018 38.3 65.2839 38.3677 65.3516 38.4432V36.6424H66.0703V41.6815H65.5508L65.3906 41.3221C65.3203 41.3976 65.2383 41.464 65.1445 41.5213C65.0586 41.5734 64.9505 41.6203 64.8203 41.662C64.6901 41.701 64.5339 41.7206 64.3516 41.7206ZM64.3906 38.7206C64.2526 38.7206 64.1211 38.7492 63.9961 38.8065C63.8711 38.8612 63.7604 38.9406 63.6641 39.0448C63.5677 39.1489 63.4909 39.2726 63.4336 39.4159C63.3789 39.5565 63.3516 39.7114 63.3516 39.8807C63.3516 40.0526 63.3789 40.2088 63.4336 40.3495C63.4909 40.4901 63.5677 40.6125 63.6641 40.7166C63.7604 40.8208 63.8711 40.9015 63.9961 40.9588C64.1211 41.0135 64.2526 41.0409 64.3906 41.0409C64.5286 41.0409 64.6602 41.0135 64.7852 40.9588C64.9128 40.9015 65.0234 40.8208 65.1172 40.7166C65.2135 40.6125 65.2891 40.4901 65.3438 40.3495C65.401 40.2088 65.4297 40.0526 65.4297 39.8807C65.4297 39.7088 65.401 39.5526 65.3438 39.412C65.2891 39.2713 65.2135 39.1489 65.1172 39.0448C65.0234 38.9406 64.9128 38.8612 64.7852 38.8065C64.6602 38.7492 64.5286 38.7206 64.3906 38.7206ZM73.9478 38.0409C73.9895 38.0409 74.0233 38.0435 74.0494 38.0487C74.078 38.0539 74.1041 38.0591 74.1275 38.0643C74.1483 38.0695 74.1692 38.0747 74.19 38.0799V38.8026C74.1692 38.7974 74.1444 38.7922 74.1158 38.787C74.0897 38.7817 74.0624 38.7765 74.0338 38.7713C74.0051 38.7635 73.9765 38.7596 73.9478 38.7596C73.8254 38.7596 73.7108 38.7844 73.6041 38.8338C73.4973 38.8807 73.4035 38.9445 73.3228 39.0252C73.2447 39.106 73.1822 39.1997 73.1353 39.3065C73.091 39.4133 73.0689 39.5252 73.0689 39.6424V41.6815H72.3502V38.0799H72.8697L73.0298 38.4432C73.095 38.3677 73.1718 38.3 73.2603 38.2401C73.3358 38.1932 73.4309 38.1489 73.5455 38.1073C73.6601 38.063 73.7942 38.0409 73.9478 38.0409ZM77.2688 40.6424C77.2089 40.7909 77.1333 40.9302 77.0422 41.0604C76.951 41.1906 76.8417 41.3052 76.7141 41.4041C76.5865 41.5031 76.438 41.5812 76.2688 41.6385C76.1021 41.6932 75.9146 41.7206 75.7063 41.7206C75.4667 41.7206 75.2427 41.6763 75.0344 41.5877C74.826 41.4966 74.6438 41.3703 74.4875 41.2088C74.3313 41.0448 74.2089 40.8508 74.1203 40.6268C74.0318 40.4028 73.9875 40.1541 73.9875 39.8807C73.9875 39.6099 74.0318 39.3625 74.1203 39.1385C74.2089 38.9146 74.3286 38.7219 74.4797 38.5604C74.6307 38.3963 74.8091 38.2687 75.0148 38.1776C75.2206 38.0864 75.438 38.0409 75.6672 38.0409C75.8964 38.0409 76.1138 38.0864 76.3195 38.1776C76.5253 38.2687 76.7036 38.3963 76.8547 38.5604C77.0057 38.7219 77.1255 38.9146 77.2141 39.1385C77.3026 39.3625 77.3469 39.6099 77.3469 39.8807C77.3469 39.9224 77.3443 39.964 77.3391 40.0057C77.3339 40.0448 77.3286 40.0786 77.3234 40.1073C77.3182 40.1437 77.313 40.175 77.3078 40.201H74.7453C74.7557 40.313 74.7883 40.4198 74.843 40.5213C74.8977 40.6229 74.9654 40.7127 75.0461 40.7909C75.1294 40.8664 75.2284 40.9276 75.343 40.9745C75.4576 41.0187 75.5786 41.0409 75.7063 41.0409C75.925 41.0409 76.0982 40.994 76.2258 40.9002C76.356 40.8065 76.4497 40.7206 76.507 40.6424H77.2688ZM75.6672 38.7206C75.4276 38.7206 75.2245 38.8026 75.0578 38.9666C74.8938 39.1281 74.7896 39.3403 74.7453 39.6034H76.6672C76.6255 39.3429 76.5188 39.1307 76.3469 38.9666C76.1776 38.8026 75.951 38.7206 75.6672 38.7206ZM79.1873 38.0409C79.4269 38.0409 79.6509 38.0864 79.8592 38.1776C80.0676 38.2687 80.2498 38.3963 80.4061 38.5604C80.565 38.7219 80.6886 38.9146 80.7772 39.1385C80.8657 39.3625 80.91 39.6099 80.91 39.8807C80.91 40.1515 80.8657 40.4002 80.7772 40.6268C80.6886 40.8508 80.565 41.0448 80.4061 41.2088C80.2498 41.3703 80.0676 41.4966 79.8592 41.5877C79.6509 41.6763 79.4269 41.7206 79.1873 41.7206C79.0155 41.7206 78.8683 41.701 78.7459 41.662C78.6235 41.6229 78.5207 41.576 78.4373 41.5213C78.341 41.4614 78.2577 41.395 78.1873 41.3221V42.9627H77.4686V38.0799H77.9881L78.1483 38.4432C78.2186 38.3677 78.3006 38.3 78.3944 38.2401C78.4803 38.1932 78.5884 38.1489 78.7186 38.1073C78.8488 38.063 79.0051 38.0409 79.1873 38.0409ZM79.1483 41.0409C79.2863 41.0409 79.4178 41.0135 79.5428 40.9588C79.6678 40.9015 79.7785 40.8208 79.8748 40.7166C79.9712 40.6125 80.0467 40.4901 80.1014 40.3495C80.1587 40.2088 80.1873 40.0526 80.1873 39.8807C80.1873 39.7088 80.1587 39.5526 80.1014 39.412C80.0467 39.2713 79.9712 39.1489 79.8748 39.0448C79.7785 38.9406 79.6678 38.8612 79.5428 38.8065C79.4178 38.7492 79.2863 38.7206 79.1483 38.7206C79.0103 38.7206 78.8775 38.7492 78.7498 38.8065C78.6248 38.8612 78.5142 38.9406 78.4178 39.0448C78.3241 39.1489 78.2485 39.2726 78.1913 39.4159C78.1366 39.5565 78.1092 39.7114 78.1092 39.8807C78.1092 40.0526 78.1366 40.2088 78.1913 40.3495C78.2485 40.4901 78.3241 40.6125 78.4178 40.7166C78.5142 40.8208 78.6248 40.9015 78.7498 40.9588C78.8775 41.0135 79.0103 41.0409 79.1483 41.0409ZM81.7895 41.6815H81.0708V36.6424H81.7895V41.6815ZM83.548 38.0409C83.7563 38.0409 83.9464 38.0747 84.1183 38.1424C84.2928 38.2075 84.4412 38.2974 84.5636 38.412C84.686 38.5265 84.781 38.662 84.8487 38.8182C84.9165 38.9719 84.9503 39.1398 84.9503 39.3221V41.6815H84.4308L84.2706 41.3221C84.2003 41.3976 84.117 41.464 84.0206 41.5213C83.9347 41.5734 83.8266 41.6203 83.6964 41.662C83.5662 41.701 83.4099 41.7206 83.2277 41.7206C82.8266 41.7206 82.5193 41.6216 82.3058 41.4237C82.0948 41.2232 81.9894 40.9627 81.9894 40.6424C81.9894 40.4601 82.0232 40.2961 82.0909 40.1502C82.1612 40.0018 82.2797 39.8768 82.4464 39.7752C82.6157 39.6711 82.8435 39.5903 83.13 39.5331C83.4191 39.4732 83.7849 39.4432 84.2277 39.4432V39.3221C84.2277 39.1398 84.1704 38.994 84.0558 38.8846C83.9412 38.7752 83.7719 38.7206 83.548 38.7206C83.3084 38.7206 83.1339 38.7635 83.0245 38.8495C82.9152 38.9354 82.85 39.0396 82.8292 39.162H82.1105C82.1313 38.8416 82.2654 38.5747 82.5128 38.3612C82.7602 38.1476 83.1053 38.0409 83.548 38.0409ZM83.2706 41.0799C83.5753 41.0799 83.811 41.0018 83.9777 40.8456C84.1443 40.6893 84.2277 40.4992 84.2277 40.2752V40.0799C83.9073 40.0799 83.6482 40.0956 83.4503 40.1268C83.255 40.1554 83.1014 40.1958 82.9894 40.2479C82.8774 40.2974 82.8019 40.3599 82.7628 40.4354C82.7264 40.5083 82.7081 40.5903 82.7081 40.6815C82.7081 40.7831 82.7563 40.8755 82.8527 40.9588C82.949 41.0396 83.0883 41.0799 83.2706 41.0799ZM88.3494 40.3612C88.3077 40.5539 88.2413 40.7336 88.1502 40.9002C88.059 41.0643 87.9431 41.2075 87.8025 41.3299C87.6645 41.4523 87.5056 41.5487 87.3259 41.619C87.1489 41.6867 86.9561 41.7206 86.7478 41.7206C86.5082 41.7206 86.2843 41.6763 86.0759 41.5877C85.8676 41.4966 85.684 41.3703 85.5252 41.2088C85.3689 41.0448 85.2465 40.8508 85.158 40.6268C85.072 40.4028 85.0291 40.1541 85.0291 39.8807C85.0291 39.6099 85.072 39.3625 85.158 39.1385C85.2465 38.9146 85.3689 38.7219 85.5252 38.5604C85.684 38.3963 85.8676 38.2687 86.0759 38.1776C86.2843 38.0864 86.5082 38.0409 86.7478 38.0409C86.9561 38.0409 87.1489 38.076 87.3259 38.1463C87.5056 38.214 87.6645 38.3104 87.8025 38.4354C87.9431 38.5578 88.0577 38.7023 88.1462 38.869C88.2374 39.0331 88.3051 39.2101 88.3494 39.4002H87.5877C87.5278 39.1971 87.4288 39.0331 87.2908 38.9081C87.1528 38.7831 86.9718 38.7206 86.7478 38.7206C86.6202 38.7206 86.4952 38.7492 86.3728 38.8065C86.2504 38.8612 86.1436 38.9406 86.0525 39.0448C85.9614 39.1489 85.8871 39.2726 85.8298 39.4159C85.7752 39.5565 85.7478 39.7114 85.7478 39.8807C85.7478 40.0526 85.7752 40.2088 85.8298 40.3495C85.8871 40.4901 85.9614 40.6125 86.0525 40.7166C86.1436 40.8208 86.2504 40.9015 86.3728 40.9588C86.4952 41.0135 86.6202 41.0409 86.7478 41.0409C86.9718 41.0409 87.1528 40.9784 87.2908 40.8534C87.4314 40.7284 87.5304 40.5643 87.5877 40.3612H88.3494ZM91.5531 40.6424C91.4932 40.7909 91.4177 40.9302 91.3266 41.0604C91.2354 41.1906 91.126 41.3052 90.9984 41.4041C90.8708 41.5031 90.7224 41.5812 90.5531 41.6385C90.3865 41.6932 90.199 41.7206 89.9906 41.7206C89.751 41.7206 89.5271 41.6763 89.3187 41.5877C89.1104 41.4966 88.9281 41.3703 88.7719 41.2088C88.6156 41.0448 88.4932 40.8508 88.4047 40.6268C88.3161 40.4028 88.2719 40.1541 88.2719 39.8807C88.2719 39.6099 88.3161 39.3625 88.4047 39.1385C88.4932 38.9146 88.613 38.7219 88.7641 38.5604C88.9151 38.3963 89.0935 38.2687 89.2992 38.1776C89.5049 38.0864 89.7224 38.0409 89.9516 38.0409C90.1807 38.0409 90.3982 38.0864 90.6039 38.1776C90.8096 38.2687 90.988 38.3963 91.1391 38.5604C91.2901 38.7219 91.4099 38.9146 91.4984 39.1385C91.587 39.3625 91.6312 39.6099 91.6312 39.8807C91.6312 39.9224 91.6286 39.964 91.6234 40.0057C91.6182 40.0448 91.613 40.0786 91.6078 40.1073C91.6026 40.1437 91.5974 40.175 91.5922 40.201H89.0297C89.0401 40.313 89.0727 40.4198 89.1273 40.5213C89.182 40.6229 89.2497 40.7127 89.3305 40.7909C89.4138 40.8664 89.5128 40.9276 89.6273 40.9745C89.7419 41.0187 89.863 41.0409 89.9906 41.0409C90.2094 41.0409 90.3826 40.994 90.5102 40.9002C90.6404 40.8065 90.7341 40.7206 90.7914 40.6424H91.5531ZM89.9516 38.7206C89.712 38.7206 89.5089 38.8026 89.3422 38.9666C89.1781 39.1281 89.074 39.3403 89.0297 39.6034H90.9516C90.9099 39.3429 90.8031 39.1307 90.6312 38.9666C90.462 38.8026 90.2354 38.7206 89.9516 38.7206Z" fill="#2D81FF"/>
</svg>
